<svg width="55" height="55" viewBox="0 0 55 55" fill="none" xmlns="http://www.w3.org/2000/svg">
<path d="M25.5328 3.38061C24.6138 3.76121 23.7901 4.58493 22.1428 6.23223C20.4959 7.87918 19.6718 8.70326 19.2913 9.62198C18.7838 10.8471 18.7838 12.2238 19.2913 13.449C19.6719 14.3678 20.4955 15.1915 22.1429 16.8389C23.7893 18.4853 24.6141 19.31 25.5326 19.6905C26.7578 20.198 28.1346 20.198 29.3596 19.6905C30.2786 19.3099 31.1021 18.4862 32.7496 16.8389C34.3968 15.1915 35.2181 14.3678 35.5988 13.449C36.1061 12.2238 36.1061 10.8471 35.5988 9.62198C35.2181 8.70313 34.3968 7.87958 32.7496 6.23223C31.1021 4.58491 30.2786 3.76121 29.3596 3.38061C28.1346 2.87313 26.7578 2.87313 25.5328 3.38061Z" stroke="white" stroke-width="5" stroke-linecap="round" stroke-linejoin="round"/>
<path d="M9.62206 19.29C8.70321 19.6706 7.87951 20.4943 6.23218 22.1417C4.58528 23.7886 3.76116 24.6128 3.38061 25.5313C2.87313 26.7566 2.87313 28.1333 3.38061 29.3583C3.76121 30.2773 4.58491 31.1011 6.23223 32.7483C7.87866 34.3948 8.70338 35.2193 9.62198 35.5998C10.8471 36.1073 12.2238 36.1073 13.449 35.5998C14.3678 35.2193 15.1915 34.3956 16.8389 32.7483C18.4862 31.1011 19.3075 30.2773 19.6881 29.3583C20.1955 28.1333 20.1955 26.7566 19.6881 25.5313C19.3075 24.6126 18.4862 23.7891 16.8389 22.1417C15.1915 20.4943 14.3678 19.6706 13.449 19.29C12.2238 18.7826 10.8472 18.7826 9.62206 19.29Z" stroke="white" stroke-width="5" stroke-linecap="round" stroke-linejoin="round"/>
<path d="M38.0536 22.1417C36.4066 23.7886 35.5826 24.6126 35.2018 25.5313C34.6943 26.7566 34.6943 28.1333 35.2018 29.3583C35.5826 30.2773 36.4063 31.1008 38.0536 32.7483C39.6998 34.3946 40.5248 35.2193 41.4433 35.5998C42.6683 36.1073 44.0451 36.1073 45.2703 35.5998C46.1891 35.2193 47.0128 34.3956 48.6601 32.7483C50.3076 31.1011 51.1288 30.2773 51.5093 29.3583C52.0168 28.1333 52.0168 26.7566 51.5093 25.5313C51.1288 24.6126 50.3076 23.7891 48.6601 22.1417C47.0128 20.4943 46.1891 19.6706 45.2703 19.29C44.0451 18.7826 42.6686 18.7826 41.4433 19.29C40.5246 19.6706 39.7008 20.4943 38.0536 22.1417Z" stroke="white" stroke-width="5" stroke-linecap="round" stroke-linejoin="round"/>
<path d="M25.5328 35.2006C24.6138 35.5813 23.7901 36.4051 22.1428 38.0523C20.4959 39.6993 19.6718 40.5233 19.2913 41.4421C18.7838 42.6673 18.7838 44.0438 19.2913 45.2691C19.6719 46.1878 20.4955 47.0116 22.1429 48.6588C23.7893 50.3053 24.6141 51.1301 25.5326 51.5106C26.7578 52.0181 28.1346 52.0181 29.3596 51.5106C30.2786 51.1301 31.1021 50.3063 32.7496 48.6588C34.3968 47.0116 35.2181 46.1878 35.5988 45.2691C36.1061 44.0438 36.1061 42.6673 35.5988 41.4421C35.2181 40.5233 34.3968 39.6996 32.7496 38.0523C31.1021 36.4051 30.2786 35.5813 29.3596 35.2006C28.1346 34.6933 26.7578 34.6933 25.5328 35.2006Z" stroke="white" stroke-width="5" stroke-linecap="round" stroke-linejoin="round"/>
</svg>
